# xmcd
#
# Track frame offsets: 
#        150
#        12681
#        22963
#        35998
#        47377
#        58785
#        69709
#        78789
#        92104
#        103983
#        116264
#        128219
#        138799
#        150618
#        160694
#        172371
#        183327
#        193065
#        203827
#        214689
#        227049
#        237033
#        250161
#        259999
#        271904
#
# Disc length: 3790 seconds
#
# Revision: 0
# Processed by: cddbd v1.5.2PL0 Copyright (c) Steve Scherf et al.
# Submitted via: ExactAudioCopy v0.99pb4
#
DISCID=610ecc19
DTITLE=Various Artist - Berry Gordy - Motor City Roots
DYEAR=2009
DGENRE=Motown - Classic
TTITLE0=Jackie Wilson - Reet Petite (The Finest Girl You Ever Want To 
TTITLE0=Meet)
TTITLE1=Al Kent - That's Why (I Love You)
TTITLE2=The Solitaires - Thrill Of Love
TTITLE3=Kenny Martin - My Love Is Coming Down
TTITLE4=The Fideltones - Is It Too Late
TTITLE5=Bob Kayli - Everyone Was There
TTITLE6=Bob Kayli - I Took A Dare
TTITLE7=Tom Clay and The Rayber Voices - Never Before
TTITLE8=Tom Clay and The Rayber Voices - Marry Me
TTITLE9=The Miracles - Got A Job
TTITLE10=The Miracles - My Momma Done Told Me
TTITLE11=The Miracles - I Need Some Money
TTITLE12=The Miracles - I Cry
TTITLE13=The Five Stars - Blabber Mouth
TTITLE14=The Five Stars - Baby Baby
TTITLE15=Eddie Holland - You (You You You You)
TTITLE16=Eddie Holland - Little Miss Ruby
TTITLE17=Lavern Baker - It's So Fine
TTITLE18=Jackie Wilson - Etcetra
TTITLE19=Jackie Wilson - Lonely Teardrops
TTITLE20=Bobby Darin - Action (Speaks Louder Than Words)
TTITLE21=Marv Johnson - Once Upon A Time
TTITLE22=Marv Johnson - My Baby O
TTITLE23=Brian Holland - In Nature Boy
TTITLE24=Harvey Fuqua - Don't Be Afraid Of Love
EXTD=
EXTT0=
EXTT1=
EXTT2=
EXTT3=
EXTT4=
EXTT5=
EXTT6=
EXTT7=
EXTT8=
EXTT9=
EXTT10=
EXTT11=
EXTT12=
EXTT13=
EXTT14=
EXTT15=
EXTT16=
EXTT17=
EXTT18=
EXTT19=
EXTT20=
EXTT21=
EXTT22=
EXTT23=
EXTT24=
PLAYORDER=
